HIERARCHY
ROOT Hips
{
	OFFSET 0.00000 0.00000 0.00000
	CHANNELS 6 Xposition Yposition Zposition Zrotation Yrotation Xrotation 
	JOINT LHipJoint
	{
		OFFSET 0 0 0
		CHANNELS 3 Zrotation Yrotation Xrotation
		JOINT LeftUpLeg
		{
			OFFSET 1.54859 -1.61379 0.86856
			CHANNELS 3 Zrotation Yrotation Xrotation
			JOINT LeftLeg
			{
				OFFSET 2.25087 -6.18423 0.00000
				CHANNELS 3 Zrotation Yrotation Xrotation
				JOINT LeftFoot
				{
					OFFSET 2.40328 -6.60297 0.00000
					CHANNELS 3 Zrotation Yrotation Xrotation
					JOINT LeftToeBase
					{
						OFFSET 0.17435 -0.47901 2.02453
						CHANNELS 3 Zrotation Yrotation Xrotation
						End Site
						{
							OFFSET 0.00000 -0.00000 1.04844
						}
					}
				}
			}
		}
	}
	JOINT RHipJoint
	{
		OFFSET 0 0 0
		CHANNELS 3 Zrotation Yrotation Xrotation
		JOINT RightUpLeg
		{
			OFFSET -1.54669 -1.61379 0.86856
			CHANNELS 3 Zrotation Yrotation Xrotation
			JOINT RightLeg
			{
				OFFSET -2.28132 -6.26789 0.00000
				CHANNELS 3 Zrotation Yrotation Xrotation
				JOINT RightFoot
				{
					OFFSET -2.51636 -6.91365 0.00000
					CHANNELS 3 Zrotation Yrotation Xrotation
					JOINT RightToeBase
					{
						OFFSET -0.15124 -0.41552 2.21090
						CHANNELS 3 Zrotation Yrotation Xrotation
						End Site
						{
							OFFSET -0.00000 -0.00000 1.13399
						}
					}
				}
			}
		}
	}
	JOINT LowerBack
	{
		OFFSET 0 0 0
		CHANNELS 3 Zrotation Yrotation Xrotation
		JOINT Spine
		{
			OFFSET -0.04287 2.26161 -0.25690
			CHANNELS 3 Zrotation Yrotation Xrotation
			JOINT Spine1
			{
				OFFSET 0.02248 2.28395 -0.10140
				CHANNELS 3 Zrotation Yrotation Xrotation
				JOINT Neck
				{
					OFFSET 0 0 0
					CHANNELS 3 Zrotation Yrotation Xrotation
					JOINT Neck1
					{
						OFFSET -0.11644 1.38496 0.11345
						CHANNELS 3 Zrotation Yrotation Xrotation
						JOINT Head
						{
							OFFSET 0.29383 1.36600 0.06642
							CHANNELS 3 Zrotation Yrotation Xrotation
							End Site
							{
								OFFSET 0.11075 1.41395 -0.00294
							}
						}
					}
				}
				JOINT LeftShoulder
				{
					OFFSET 0 0 0
					CHANNELS 3 Zrotation Yrotation Xrotation
					JOINT LeftArm
					{
						OFFSET 3.51628 0.59542 -0.30346
						CHANNELS 3 Zrotation Yrotation Xrotation
						JOINT LeftForeArm
						{
							OFFSET 4.76405 -0.00000 0.00000
							CHANNELS 3 Zrotation Yrotation Xrotation
							JOINT LeftHand
							{
								OFFSET 3.13759 -0.00000 -0.00000
								CHANNELS 3 Zrotation Yrotation Xrotation
								JOINT LeftFingerBase
								{
									OFFSET 0 0 0
									CHANNELS 3 Zrotation Yrotation Xrotation
									JOINT LeftHandIndex1
									{
										OFFSET 0.73226 -0.00000 -0.00000
										CHANNELS 3 Zrotation Yrotation Xrotation
										End Site
										{
											OFFSET 0.59037 -0.00000 -0.00000
										}
									}
								}
								JOINT LThumb
								{
									OFFSET 0 0 0
									CHANNELS 3 Zrotation Yrotation Xrotation
									End Site
									{
										OFFSET 0.59938 -0.00000 0.59938
									}
								}
							}
						}
					}
				}
				JOINT RightShoulder
				{
					OFFSET 0 0 0
					CHANNELS 3 Zrotation Yrotation Xrotation
					JOINT RightArm
					{
						OFFSET -3.30990 0.84213 -0.36430
						CHANNELS 3 Zrotation Yrotation Xrotation
						JOINT RightForeArm
						{
							OFFSET -5.10161 -0.00000 -0.00000
							CHANNELS 3 Zrotation Yrotation Xrotation
							JOINT RightHand
							{
								OFFSET -3.23267 -0.00000 -0.00000
								CHANNELS 3 Zrotation Yrotation Xrotation
								JOINT RightFingerBase
								{
									OFFSET 0 0 0
									CHANNELS 3 Zrotation Yrotation Xrotation
									JOINT RightHandIndex1
									{
										OFFSET -0.70200 -0.00000 -0.00000
										CHANNELS 3 Zrotation Yrotation Xrotation
										End Site
										{
											OFFSET -0.56597 -0.00000 -0.00000
										}
									}
								}
								JOINT RThumb
								{
									OFFSET 0 0 0
									CHANNELS 3 Zrotation Yrotation Xrotation
									End Site
									{
										OFFSET -0.57461 -0.00000 0.57461
									}
								}
							}
						}
					}
				}
			}
		}
	}
}
MOTION
Frames: 7
Frame Time: .0083333
-25.5578 15.7159 0.1271 0 0 0 0 0 0 -21 0 0 0 0 0 0 0 0 0 0 0 0 0 0 21 0 0 0 0 0 0 0 0 0 0 0 0 0 0 0 0 0 0 0 0 0 0 -16 0 0 21 0 0 11 0 0 0 -8 0 0 0 0 0 0 0 0 0 0 0 0 0 0 0 0 0 0 0 0 8 0 0 0 0 0 0 0 0 0 0 0 0 0 0 0 0 0
-25.5578 15.7159 0.1271 131.8950 87.5417 142.5230 0.0000 0.0000 0.0000 -12.2478 -20.1279 -62.0661 17.1015 19.7974 81.4979 -0.0492 -4.2906 -0.2696 0.2825 -3.4183 -9.4457 0.0000 0.0000 0.0000 21.6507 -11.8508 26.4263 -0.4329 -4.2222 11.7025 -0.1762 -5.5872 7.8822 -1.9373 8.7343 -24.9675 -2.5001 4.9561 13.0523 0.5666 6.5345 6.2239 1.0744 3.3215 -1.0775 -17.9943 -10.9315 -1.1038 23.6625 -11.5081 -21.7235 10.7329 -5.5748 -3.3275 0.0000 -0.0000 0.0000 -41.7590 52.6450 88.8804 84.7842 -59.8970 -55.4846 -0.0000 0.0000 -30.6429 34.4458 21.3910 14.0451 -7.1250 0.0000 -0.0000 6.2568 55.2785 1.5834 0.0000 -0.0000 0.0000 83.0241 12.4796 52.5908 -142.0747 46.7916 -103.0889 0.0000 -0.0000 -10.2676 -50.1218 42.2664 -38.8347 7.1250 -0.0000 -0.0000 -6.0285 24.5772 -8.0209
-24.8861 15.7659 0.1472 148.1330 87.6292 159.1240 0.0000 0.0000 0.0000 -12.1207 -19.8900 -61.5113 14.8949 19.3633 74.9200 -0.0676 -4.9508 -0.1259 0.3036 -3.5425 -9.7929 0.0000 0.0000 0.0000 22.5422 -11.7758 26.1219 -0.7281 -5.4521 15.2026 -0.1543 -6.3784 7.7401 -1.5352 7.8223 -22.1755 -2.0532 4.9502 12.5090 0.3338 6.5706 6.0162 0.6236 3.3441 -0.9324 -17.6383 -11.0864 -1.3531 23.9123 -11.7351 -21.0604 10.6728 -5.7245 -3.0417 0.0000 -0.0000 0.0000 -43.2404 53.0699 86.4132 87.1324 -59.9689 -57.5168 -0.0000 0.0000 -30.1221 34.6262 20.5501 13.6254 -7.1250 0.0000 -0.0000 6.5429 54.3541 1.5088 0.0000 -0.0000 0.0000 82.7634 10.7233 53.4051 -140.4215 47.8182 -101.8737 0.0000 -0.0000 -11.4068 -48.1271 41.6330 -36.5437 7.1250 -0.0000 -0.0000 -5.3712 22.9267 -7.0619
-24.2176 15.8069 0.1635 166.7100 87.3070 177.8840 0.0000 0.0000 0.0000 -12.3583 -19.2662 -60.5265 12.7482 18.6894 68.3417 -0.0910 -5.7194 -0.0905 0.3384 -3.7380 -10.3407 0.0000 0.0000 0.0000 23.3350 -12.4313 25.7882 -1.0889 -6.6319 18.6294 -0.1306 -5.5833 7.0210 -2.6890 10.1737 -29.5412 -1.5988 4.7399 12.0558 0.3345 6.3489 5.9678 0.4444 3.2393 -0.6880 -17.7594 -11.0842 -1.5162 24.1702 -11.7506 -20.6078 10.7375 -5.7354 -2.8438 0.0000 -0.0000 0.0000 -46.3220 53.3608 82.8739 88.6916 -59.9935 -58.8669 -0.0000 0.0000 -29.6971 35.4658 19.9500 13.6618 -7.1250 0.0000 -0.0000 7.5146 53.8450 1.6412 0.0000 -0.0000 0.0000 82.5693 9.5095 53.9340 -137.3787 49.5485 -99.5879 0.0000 -0.0000 -12.0933 -47.0341 41.4256 -35.3891 7.1250 -0.0000 -0.0000 -4.9449 22.1786 -6.4635
-23.5435 15.8482 0.1765 182.5120 86.7137 193.8790 0.0000 0.0000 0.0000 -12.7289 -18.4901 -59.1186 10.6370 17.7528 61.5971 -0.1092 -6.2930 -0.1770 0.4078 -4.0996 -11.3570 0.0000 0.0000 0.0000 24.0966 -13.4092 25.2788 -1.5062 -7.7514 21.9617 -0.1525 -4.5837 7.1786 -4.3276 12.5840 -37.8305 -1.0388 4.4376 11.4908 0.4675 6.0195 6.0018 0.3667 3.0829 -0.3018 -18.0720 -11.0597 -1.6722 24.5660 -11.6648 -20.5171 10.9168 -5.6825 -2.7449 0.0000 0.0000 0.0000 -50.3610 53.3155 78.7775 89.7696 -59.9998 -59.8005 -0.0000 0.0000 -29.2068 36.9008 19.5203 14.0841 -7.1250 0.0000 -0.0000 9.1155 53.6592 1.9535 0.0000 0.0000 0.0000 82.7038 7.5259 54.5249 -133.9281 51.2829 -96.9279 0.0000 -0.0000 -12.5436 -43.9773 39.8192 -31.7121 7.1250 -0.0000 -0.0000 -4.0919 19.1163 -5.2168
-22.8709 15.8903 0.1905 193.3940 86.0674 204.8550 0.0000 0.0000 0.0000 -13.3153 -17.4497 -57.3274 8.6394 16.5700 54.8345 -0.1397 -7.0534 -0.0409 0.5590 -4.7889 -13.3074 0.0000 0.0000 0.0000 24.8561 -14.1326 24.5637 -2.1082 -9.0880 26.0710 -0.0829 -4.3023 5.5441 -5.0478 13.4374 -41.0288 -0.4327 4.1799 11.1266 0.5348 5.7417 5.9947 0.1651 2.9555 -0.0589 -17.9764 -11.1168 -1.4703 25.0384 -11.6365 -20.9678 11.1083 -5.7050 -2.8689 0.0000 0.0000 0.0000 -54.3130 52.8687 74.8773 90.6842 -59.9982 -60.5925 -0.0000 0.0000 -28.5150 37.6737 19.3735 14.3670 -7.1250 0.0000 -0.0000 9.9742 53.6584 2.1400 0.0000 0.0000 0.0000 83.2169 5.4254 54.6446 -129.7254 53.1057 -93.6064 0.0000 -0.0000 -13.2226 -41.4137 38.2599 -28.6428 7.1250 -0.0000 -0.0000 -3.3636 16.3909 -4.1821
-22.2150 15.9319 0.2133 199.7370 85.3279 211.0730 0.0000 0.0000 0.0000 -14.1607 -16.1814 -55.1446 6.8443 15.1993 48.2828 -0.1812 -7.9144 0.2747 0.7970 -5.6983 -15.9115 0.0000 0.0000 0.0000 25.6794 -14.8631 23.8311 -2.9063 -10.5419 30.7499 -0.0255 -4.7140 4.1374 -5.9869 14.4156 -44.9290 0.0765 3.9677 11.2613 0.5153 5.5123 5.9633 -0.1218 2.8534 -0.1144 -17.6116 -11.1686 -1.0786 25.4717 -11.5988 -21.5326 11.2648 -5.7517 -3.0835 -0.0000 0.0000 0.0000 -57.9897 51.8668 71.2369 91.0637 -59.9957 -60.9212 -0.0000 0.0000 -27.5630 37.8810 20.0192 14.9128 -7.1250 0.0000 -0.0000 10.2031 54.4690 2.3926 -0.0000 0.0000 0.0000 84.1523 3.2717 54.2309 -124.5109 54.9829 -89.3839 0.0000 -0.0000 -14.2594 -40.7650 37.6059 -27.7481 7.1250 -0.0000 -0.0000 -3.2473 15.4398 -4.0000
